<svg xmlns="http://www.w3.org/2000/svg" viewBox="0 0 1000 430" role="img" aria-label="Chart of the CoreWise Academy catalogue: 40 published guides as stars in five constellations, one per curriculum layer.">
<g font-family="ui-monospace, 'IBM Plex Mono', SFMono-Regular, Menlo, monospace">
<rect x="0" y="0" width="1000" height="430" fill="#121420"/>
<rect x="8" y="8" width="984" height="414" fill="none" stroke="#e8e4d8" stroke-width="1.2"/>
<rect x="14" y="14" width="972" height="402" fill="none" stroke="#e8e4d8" stroke-opacity="0.16" stroke-width="0.7"/>
<path d="M 120 258 L 330 218 L 520 240 L 712 150 L 880 112" fill="none" stroke="#e8e4d8" stroke-opacity="0.16" stroke-width="0.9" stroke-dasharray="1 5"/>
<circle cx="129.8" cy="242.3" r="1.9" fill="#e8e4d8" fill-opacity="0.91"/>
<circle cx="149.6" cy="282.2" r="1.9" fill="#e8e4d8" fill-opacity="0.63"/>
<circle cx="152.9" cy="261.7" r="2.5" fill="#e8e4d8" fill-opacity="0.65"/>
<text x="120" y="382" text-anchor="middle" font-size="11.5" letter-spacing="1.5" fill="#a9a496">I · THE LENS</text>
<text x="120" y="399" text-anchor="middle" font-size="10" letter-spacing="1" fill="#a9a496">3 GUIDES</text>
<circle cx="337.5" cy="188.5" r="1.9" fill="#e8e4d8" fill-opacity="0.8"/>
<circle cx="381" cy="211.7" r="3.2" fill="#e8e4d8" fill-opacity="0.63"/>
<circle cx="301.4" cy="184.5" r="2.5" fill="#e8e4d8" fill-opacity="0.65"/>
<circle cx="338.6" cy="165.3" r="2.5" fill="#e8e4d8" fill-opacity="0.89"/>
<circle cx="344.3" cy="262.3" r="2.5" fill="#e8e4d8" fill-opacity="0.8"/>
<circle cx="346.3" cy="225.9" r="2.5" fill="#e8e4d8" fill-opacity="0.77"/>
<circle cx="339.4" cy="211.5" r="2.5" fill="#e8e4d8" fill-opacity="0.8"/>
<text x="330" y="382" text-anchor="middle" font-size="11.5" letter-spacing="1.5" fill="#a9a496">II · THE LOOM</text>
<text x="330" y="399" text-anchor="middle" font-size="10" letter-spacing="1" fill="#a9a496">7 GUIDES</text>
<circle cx="575.3" cy="276.2" r="2.5" fill="#e8e4d8" fill-opacity="0.76"/>
<path d="M12 0 L14.88 9.12 L24 12 L14.88 14.88 L12 24 L9.12 14.88 L0 12 L9.12 9.12 Z" transform="translate(461.90 210.30) scale(0.6250)" fill="#96a8ff"/>
<circle cx="564.9" cy="250.7" r="2.5" fill="#e8e4d8" fill-opacity="0.9"/>
<circle cx="516.1" cy="218.7" r="1.9" fill="#e8e4d8" fill-opacity="0.71"/>
<circle cx="536.9" cy="285.5" r="2.5" fill="#e8e4d8" fill-opacity="0.73"/>
<circle cx="552.5" cy="240.7" r="1.9" fill="#e8e4d8" fill-opacity="0.84"/>
<circle cx="517.2" cy="274.4" r="2.5" fill="#e8e4d8" fill-opacity="0.72"/>
<circle cx="483.7" cy="211.2" r="1.9" fill="#e8e4d8" fill-opacity="0.76"/>
<circle cx="533.1" cy="177.1" r="1.9" fill="#e8e4d8" fill-opacity="0.73"/>
<circle cx="571.8" cy="252.1" r="1.9" fill="#e8e4d8" fill-opacity="0.69"/>
<circle cx="494.4" cy="214.2" r="2.5" fill="#e8e4d8" fill-opacity="0.69"/>
<circle cx="520.5" cy="196.6" r="1.9" fill="#e8e4d8" fill-opacity="0.6"/>
<circle cx="575.5" cy="257.5" r="3.2" fill="#e8e4d8" fill-opacity="0.72"/>
<circle cx="532.2" cy="240.1" r="1.9" fill="#e8e4d8" fill-opacity="0.62"/>
<circle cx="470.1" cy="193.7" r="2.5" fill="#e8e4d8" fill-opacity="0.8"/>
<circle cx="499.9" cy="293.7" r="2.5" fill="#e8e4d8" fill-opacity="0.77"/>
<circle cx="511.4" cy="206.1" r="1.9" fill="#e8e4d8" fill-opacity="0.82"/>
<circle cx="603.4" cy="222.8" r="1.9" fill="#e8e4d8" fill-opacity="0.63"/>
<circle cx="502.8" cy="250.8" r="2.5" fill="#e8e4d8" fill-opacity="0.94"/>
<circle cx="577.4" cy="250.5" r="2.5" fill="#e8e4d8" fill-opacity="0.7"/>
<circle cx="594.2" cy="249.9" r="1.9" fill="#e8e4d8" fill-opacity="0.79"/>
<circle cx="554.8" cy="224.7" r="1.9" fill="#e8e4d8" fill-opacity="0.6"/>
<text x="520" y="382" text-anchor="middle" font-size="11.5" letter-spacing="1.5" fill="#a9a496">III · THE COURIER</text>
<text x="520" y="399" text-anchor="middle" font-size="10" letter-spacing="1" fill="#a9a496">22 GUIDES</text>
<circle cx="710.9" cy="132.6" r="1.9" fill="#e8e4d8" fill-opacity="0.63"/>
<circle cx="697.4" cy="165.1" r="2.5" fill="#e8e4d8" fill-opacity="0.84"/>
<circle cx="685.1" cy="134.6" r="2.5" fill="#e8e4d8" fill-opacity="0.73"/>
<text x="712" y="382" text-anchor="middle" font-size="11.5" letter-spacing="1.5" fill="#a9a496">IV · THE FORGE</text>
<text x="712" y="399" text-anchor="middle" font-size="10" letter-spacing="1" fill="#a9a496">3 GUIDES</text>
<circle cx="883.2" cy="87.3" r="2.5" fill="#e8e4d8" fill-opacity="0.66"/>
<circle cx="836.3" cy="103.9" r="1.9" fill="#e8e4d8" fill-opacity="0.76"/>
<circle cx="877.1" cy="80.9" r="2.5" fill="#e8e4d8" fill-opacity="0.68"/>
<circle cx="932.6" cy="117.3" r="1.9" fill="#e8e4d8" fill-opacity="0.78"/>
<circle cx="834.3" cy="87.3" r="1.9" fill="#e8e4d8" fill-opacity="0.93"/>
<text x="880" y="382" text-anchor="middle" font-size="11.5" letter-spacing="1.5" fill="#a9a496">V · THE METRONOME</text>
<text x="880" y="399" text-anchor="middle" font-size="10" letter-spacing="1" fill="#a9a496">5 GUIDES</text>
<path d="M 475.4 211.8 L 483.4 203.8" stroke="#e8e4d8" stroke-opacity="0.55" stroke-width="0.7" fill="none"/>
<text x="487.4" y="206.8" font-size="10.5" letter-spacing="1" fill="#96a8ff">Nº 047 · NEWEST</text>
<text x="34" y="46" font-size="15" letter-spacing="2.8" fill="#e8e4d8" font-weight="600">COREWISE ACADEMY</text>
<text x="34" y="68" font-size="10.5" letter-spacing="2" fill="#a9a496" font-weight="400">PLATE OF THE CATALOGUE</text>
<text x="34" y="83" font-size="11.5" letter-spacing="1.2" fill="#e8e4d8" font-weight="600">40 GUIDES · 271 MINUTES OF READING</text>
<text x="34" y="101" font-size="9.5" letter-spacing="1" fill="#84806f" font-weight="400">SURVEYED FROM GUIDE FRONTMATTER</text>
<text x="34" y="116" font-size="9.5" letter-spacing="1" fill="#84806f" font-weight="400">ENGRAVED BY scripts/readme-plate.mjs · CORRECTED TO AUGUST 2026</text>
<text x="34" y="135" font-size="10" letter-spacing="1" fill="#a9a496">ONE STAR = ONE PUBLISHED GUIDE · LARGER = DEEPER</text>
<text x="34" y="151" font-size="10" letter-spacing="1" fill="#a9a496">THE DOTTED PATH WALKS THE FIVE LAYERS IN ORDER</text>
<text x="966" y="336" text-anchor="end" font-size="9.5" letter-spacing="1" fill="#84806f">CHECKED BY scripts/readme-plate.mjs --check</text>
<text x="966" y="351" text-anchor="end" font-size="9.5" letter-spacing="1" fill="#84806f">CI FAILS WHEN SKY AND PAGE DISAGREE</text>
</g>
</svg>
